# xmcd
#
# Track frame offsets: 
#        150
#        9862
#        23637
#        36520
#        50175
#        63600
#        91612
#        106600
#        120255
#        133760
#        152605
#        163165
#
# Disc length: 2508 seconds
#
# Revision: 3
# Processed by: cddbd v1.5.2PL0 Copyright (c) Steve Scherf et al.
# Submitted via: ExactAudioCopy v1.0b6
#
DISCID=8e09ca0c
DTITLE=Ostbahn Kurti and Die Chefpartie - Ostbahn Kurti and Die Chefpartie
DYEAR=1985
DGENRE=Austro Pop
TTITLE0=I brauch kan Dokta
TTITLE1=Ois hot sei End
TTITLE2=Kilo
TTITLE3=Es ist besser du gehst
TTITLE4=Feuer
TTITLE5=Blattschuss
TTITLE6=Wo hamma denn den Fahrschein
TTITLE7=Du bist und bleibst a W
TTITLE8=Pass guat auf
TTITLE9=Stadt aus Stan
TTITLE10=Gheat si des?
TTITLE11=Tog und Nacht
EXTD=BMG Ariola-1985 YEAR: 1985
EXTT0=
EXTT1=
EXTT2=
EXTT3=
EXTT4=
EXTT5=
EXTT6=
EXTT7=
EXTT8=
EXTT9=
EXTT10=
EXTT11=
PLAYORDER=
